<svg width="81" height="45" viewBox="0 0 81 45" fill="none" xmlns="http://www.w3.org/2000/svg">
<g filter="url(#filter0_d)">
<path d="M5 36.5V7.88172V5.30108L76 1V25.9462L15.7576 30.2473L5 36.5Z" fill="#3C327F" fill-opacity="0.65"/>
<path d="M5 36.5V7.88172V5.30108L76 1V25.9462L15.7576 30.2473L5 36.5Z" fill="#3C327F"/>
<path d="M5 36.5V7.88172V5.30108L76 1V25.9462L15.7576 30.2473L5 36.5Z" stroke="#D4CFE2" stroke-width="0.5"/>
</g>
<path d="M15.0889 25.2288L12.2948 25.4487V11.4448L15.0889 11.2249V18.2269L20.2877 10.8158L23.4615 10.566L19.0513 16.8213L23.4615 24.5699L20.2877 24.8197L17.221 19.397L15.0889 22.4261V25.2288ZM35.0292 23.6595L25.2548 24.4288V10.4248L28.0488 10.2049V21.4061L35.0292 20.8568V23.6595ZM45.2048 17.263V14.4602C45.2048 14.0761 45.1301 13.7206 44.9809 13.3939C44.8381 13.06 44.6401 12.7761 44.387 12.5422C44.1339 12.3082 43.8353 12.1331 43.4913 12.0169C43.1538 11.8938 42.7936 11.8472 42.4107 11.8774C42.0278 11.9075 41.6643 12.011 41.3203 12.1878C40.9828 12.3576 40.6875 12.5794 40.4344 12.8532C40.1813 13.1271 39.9801 13.4424 39.8308 13.7992C39.688 14.149 39.6166 14.5159 39.6166 14.9V17.7028L45.2048 17.263ZM47.9989 22.6388L45.2048 22.8587V20.0559L39.6166 20.4957V23.2985L36.8322 23.5176V15.1192C36.8322 14.3444 36.9783 13.607 37.2703 12.9069C37.5624 12.2004 37.9583 11.5735 38.4581 11.0264C38.9643 10.4787 39.5549 10.0318 40.2299 9.68573C40.9114 9.33913 41.6383 9.13543 42.4107 9.07465C43.183 9.01386 43.9067 9.10339 44.5817 9.34324C45.2632 9.58257 45.8571 9.93622 46.3633 10.4042C46.8696 10.8722 47.2687 11.4365 47.5608 12.0971C47.8528 12.7512 47.9989 13.4656 47.9989 14.2403V22.6388ZM53.7156 10.9877V16.5931L56.5097 16.3732C56.8926 16.3431 57.2528 16.2431 57.5903 16.0733C57.9278 15.897 58.2231 15.672 58.4762 15.3982C58.7294 15.1243 58.9273 14.8125 59.0701 14.4627C59.2194 14.1059 59.294 13.7355 59.294 13.3514C59.294 12.9673 59.2194 12.6118 59.0701 12.285C58.9273 11.9512 58.7294 11.6673 58.4762 11.4333C58.2231 11.1993 57.9278 11.024 57.5903 10.9073C57.2528 10.7842 56.8926 10.7376 56.5097 10.7678L53.7156 10.9877ZM53.7156 22.1888L50.9215 22.4087V8.40483L56.5097 7.96503C57.0224 7.92468 57.5157 7.95422 57.9895 8.05365C58.4633 8.14657 58.9046 8.30064 59.3135 8.51585C59.7289 8.72405 60.1053 8.98739 60.4428 9.30588C60.7868 9.61735 61.0789 9.97197 61.319 10.3697C61.5656 10.767 61.7539 11.1981 61.8837 11.6632C62.02 12.1277 62.0881 12.6171 62.0881 13.1315C62.0881 13.6132 62.0265 14.0868 61.9031 14.5523C61.7863 15.0172 61.6143 15.4637 61.3872 15.8917C61.1665 16.3192 60.8939 16.7183 60.5694 17.0889C60.2449 17.4595 59.8814 17.7876 59.479 18.0731L61.0269 21.6134L58.0576 21.8471L56.8407 19.1206L53.7156 19.3861V22.1888Z" fill="white"/>
<path d="M68.5728 17.5625L66.4018 17.7334L65.8079 7.23324L69.1764 6.96814L68.5728 17.5625ZM69.157 19.9775C69.157 20.2119 69.1115 20.4368 69.0207 20.6523C68.9363 20.8607 68.8195 21.0457 68.6702 21.2072C68.5209 21.3687 68.3457 21.4997 68.1445 21.6001C67.9433 21.7071 67.7291 21.7695 67.5019 21.7874C67.2683 21.8058 67.0509 21.7774 66.8497 21.702C66.6484 21.6332 66.47 21.5301 66.3142 21.3926C66.1649 21.2546 66.0448 21.0883 65.954 20.8936C65.8696 20.6919 65.8274 20.4739 65.8274 20.2395C65.8274 20.0117 65.8696 19.7935 65.954 19.585C66.0448 19.3761 66.1649 19.1908 66.3142 19.0293C66.47 18.8673 66.6484 18.7361 66.8497 18.6356C67.0509 18.5287 67.2683 18.466 67.5019 18.4476C67.7291 18.4297 67.9433 18.4584 68.1445 18.5337C68.3457 18.6025 68.5209 18.7059 68.6702 18.8439C68.8195 18.9819 68.9363 19.1485 69.0207 19.3437C69.1115 19.5383 69.157 19.7496 69.157 19.9775Z" fill="#F8D11C"/>
<defs>
<filter id="filter0_d" x="0.75" y="0.734406" width="79.5" height="44.2001" filterUnits="userSpaceOnUse" color-interpolation-filters="sRGB">
<feFlood flood-opacity="0" result="BackgroundImageFix"/>
<feColorMatrix in="SourceAlpha" type="matrix" values="0 0 0 0 0 0 0 0 0 0 0 0 0 0 0 0 0 0 127 0"/>
<feOffset dy="4"/>
<feGaussianBlur stdDeviation="2"/>
<feColorMatrix type="matrix" values="0 0 0 0 0 0 0 0 0 0 0 0 0 0 0 0 0 0 0.25 0"/>
<feBlend mode="normal" in2="BackgroundImageFix" result="effect1_dropShadow"/>
<feBlend mode="normal" in="SourceGraphic" in2="effect1_dropShadow" result="shape"/>
</filter>
</defs>
</svg>
